<svg width="512" height="497.3500000000001" xmlns="http://www.w3.org/2000/svg" style="vector-effect: non-scaling-stroke;" stroke="null" clip-rule="evenodd" fill-rule="evenodd" image-rendering="optimizeQuality" text-rendering="geometricPrecision" shape-rendering="geometricPrecision">

 <g stroke="null">
  <title stroke="null">Layer 1</title>
  <rect stroke="#bcbc12" stroke-width="0" id="svg_3" height="511.50161" width="525.68106" y="-2.71478" x="-10.15612" fill="#ffffff"/>
  <path stroke="#000000" id="svg_1" d="m264.50664,59.18c49.11,0 93.84,18.81 127.36,49.61l24.57,-13.96l-13.84,24.64c31.17,33.6 50.22,78.59 50.22,128.02c0,48.77 -18.54,93.22 -48.96,126.66l13.8,24.27l-24.25,-13.65c-33.69,31.64 -79.04,51.03 -128.9,51.03c-49.35,0 -94.26,-18.98 -127.84,-50.05l-25.32,14.41l14.28,-25.49c-30.7,-33.51 -49.43,-78.16 -49.43,-127.18c0,-49.92 19.43,-95.3 51.14,-129l-13.4,-23.55l23.74,13.36c33.46,-30.51 77.98,-49.12 126.83,-49.12zm-7.17,-59.18l21.88,27.53l0,-19.08c0,-2.7 -0.38,-4.5 -1.15,-5.45c-1.05,-1.29 -2.81,-1.9 -5.28,-1.86l0,-1.14l14.68,0l0,1.14c-1.88,0.25 -3.14,0.56 -3.79,0.94c-0.63,0.39 -1.14,1.01 -1.51,1.89c-0.36,0.87 -0.53,2.37 -0.53,4.48l0,37l-1.11,0l-30,-37.05l0,28.34c0,2.57 0.58,4.31 1.75,5.22c1.18,0.9 2.53,1.35 4.04,1.35l1.05,0l0,1.14l-15.82,0l0,-1.14c2.46,-0.02 4.16,-0.53 5.12,-1.52c0.97,-1 1.45,-2.67 1.45,-5.05l0,-31.43l-0.93,-1.15c-0.94,-1.21 -1.77,-2 -2.49,-2.38c-0.72,-0.38 -1.76,-0.6 -3.11,-0.64l0,-1.14l15.75,0zm19.64,450.89l0.33,14.82l-1.34,0c-0.63,-3.71 -2.18,-6.69 -4.67,-8.95c-2.49,-2.26 -5.17,-3.39 -8.05,-3.39c-2.24,0 -4,0.59 -5.3,1.79c-1.3,1.18 -1.95,2.56 -1.95,4.1c0,0.98 0.23,1.85 0.69,2.62c0.63,1.02 1.64,2.04 3.05,3.04c1.03,0.72 3.4,2 7.11,3.84c5.2,2.54 8.71,4.96 10.52,7.22c1.8,2.27 2.69,4.87 2.69,7.79c0,3.71 -1.45,6.9 -4.34,9.57c-2.9,2.67 -6.57,4.01 -11.03,4.01c-1.4,0 -2.73,-0.15 -3.97,-0.43c-1.25,-0.28 -2.81,-0.81 -4.69,-1.61c-1.05,-0.43 -1.91,-0.64 -2.59,-0.64c-0.57,0 -1.17,0.22 -1.8,0.66c-0.64,0.44 -1.15,1.11 -1.54,2.02l-1.14,0l0,-16.76l1.14,0c0.96,4.7 2.81,8.3 5.55,10.77c2.75,2.47 5.7,3.71 8.87,3.71c2.45,0 4.4,-0.67 5.86,-2c1.45,-1.33 2.17,-2.87 2.17,-4.65c0,-1.04 -0.27,-2.05 -0.83,-3.04c-0.56,-0.98 -1.4,-1.91 -2.54,-2.8c-1.14,-0.88 -3.15,-2.03 -6.03,-3.45c-4.05,-1.98 -6.95,-3.68 -8.72,-5.08c-1.75,-1.39 -3.1,-2.96 -4.05,-4.68c-0.95,-1.73 -1.42,-3.63 -1.42,-5.7c0,-3.54 1.29,-6.55 3.9,-9.05c2.59,-2.49 5.86,-3.73 9.82,-3.73c1.44,0 2.84,0.17 4.19,0.51c1.02,0.27 2.28,0.75 3.75,1.46c1.48,0.7 2.5,1.05 3.1,1.05c0.57,0 1.01,-0.17 1.34,-0.52c0.32,-0.34 0.64,-1.18 0.91,-2.5l1.01,0zm210.79,-223.07l0,18.1l0.89,0c2.83,0 4.87,-0.89 6.14,-2.65c1.27,-1.77 2.08,-4.37 2.43,-7.81l1.27,0l0,23.26l-1.27,0c-0.26,-2.53 -0.82,-4.61 -1.65,-6.22c-0.85,-1.62 -1.83,-2.71 -2.94,-3.27c-1.12,-0.55 -2.74,-0.83 -4.87,-0.83l0,12.49c0,2.45 0.11,3.93 0.32,4.48c0.2,0.55 0.59,1 1.16,1.34c0.57,0.35 1.49,0.53 2.75,0.53l2.66,0c4.14,0 7.47,-0.97 9.98,-2.88c2.5,-1.91 4.3,-4.82 5.38,-8.76l1.22,0l-2,14.12l-38.36,0l0,-1.14l1.46,0c1.29,0 2.33,-0.24 3.11,-0.7c0.57,-0.31 1.01,-0.83 1.31,-1.58c0.23,-0.53 0.36,-1.91 0.36,-4.16l0,-29.3c0,-2.02 -0.06,-3.26 -0.17,-3.73c-0.21,-0.77 -0.61,-1.36 -1.21,-1.77c-0.82,-0.62 -1.95,-0.93 -3.4,-0.93l-1.46,0l0,-1.14l37.14,0l0,13.14l-1.27,0c-0.63,-3.22 -1.52,-5.52 -2.66,-6.92c-1.14,-1.4 -2.75,-2.42 -4.84,-3.08c-1.22,-0.39 -3.5,-0.59 -6.85,-0.59l-4.63,0zm-422.69,-3.06l0,1.14c-0.82,0.07 -1.53,0.31 -2.1,0.71c-0.57,0.41 -1.07,1.03 -1.52,1.85c-0.12,0.27 -0.8,1.97 -2.03,5.1l-13.91,36.66l-1.2,0l-10.99,-28.93l-12.18,28.93l-1.16,0l-14.66,-36.28c-1.49,-3.68 -2.52,-5.91 -3.11,-6.68c-0.59,-0.77 -1.58,-1.22 -2.98,-1.36l0,-1.14l19.25,0l0,1.14c-1.55,0.05 -2.58,0.28 -3.09,0.72c-0.52,0.43 -0.78,0.96 -0.78,1.6c0,0.84 0.54,2.61 1.61,5.33l8.71,21.56l7.05,-17.03l-1.77,-4.59c-1,-2.58 -1.78,-4.31 -2.32,-5.17c-0.55,-0.86 -1.18,-1.49 -1.89,-1.85c-0.7,-0.38 -1.74,-0.57 -3.12,-0.57l0,-1.14l21.34,0l0,1.14c-1.5,0.03 -2.58,0.15 -3.24,0.38c-0.46,0.14 -0.81,0.41 -1.07,0.77c-0.27,0.36 -0.39,0.78 -0.39,1.24c0,0.51 0.48,2.06 1.46,4.67l8.08,21.03l7.23,-19.03c0.76,-1.98 1.23,-3.34 1.41,-4.07c0.18,-0.73 0.26,-1.4 0.26,-2.01c0,-0.91 -0.31,-1.61 -0.92,-2.14c-0.6,-0.51 -1.78,-0.79 -3.5,-0.84l0,-1.14l11.53,0zm160.82,85.13l-56.83,32.33l33.24,-59.05l17.57,4.83l-122.08,-33.56c1.77,43.32 20.05,82.38 48.72,111.04c28.1,28.11 66.21,46.23 108.52,48.6l-29.14,-104.19zm-23.29,-101.85l-31.93,-56.13l56.1,31.58l28.2,-102.58c-42.29,2.38 -80.37,20.5 -108.46,48.59c-27.95,27.95 -46.03,65.78 -48.56,107.81l123.52,-34.54l-18.87,5.27zm99.06,-23.43l57.62,-32.78l-32.02,56.9l-20.43,-5.62l124.21,34.14c-2.55,-42.01 -20.61,-79.81 -48.55,-107.75c-28.4,-28.4 -67.01,-46.61 -109.85,-48.66l29.02,103.77zm25.58,98.85l32.81,57.67l-58.27,-32.8l-29.08,105.82c42.82,-2.08 81.4,-20.28 109.79,-48.67c28.68,-28.68 46.96,-67.76 48.72,-111.1l-103.97,29.08zm-63.79,-37.51l0.39,0.41l-36.72,39.27l-144.36,-39.68l180.69,0zm2.1,-0.17l-0.4,-0.4l11.49,-12.29l-13.29,12.78l-39.27,-36.72l39.68,-144.36l0,180.63l13.19,-12.65l24.92,-26.66l144.36,39.67l-180.68,0zm-1.22,3.33l39.27,36.72l-35.31,128.47l-4.37,15.89l0,-180.63l0.41,-0.45z"/>
 </g>
</svg>